<?xml version="1.0" encoding="UTF-8"?>
<svg id="Layer_1" data-name="Layer 1" xmlns="http://www.w3.org/2000/svg" viewBox="0 0 595.28 841.89">
  <defs>
    <style>
      .cls-1 {
        fill: #b9b7b5;
      }

      .cls-2 {
        fill: #c3bfbc;
      }

      .cls-3 {
        stroke-width: .31px;
      }

      .cls-3, .cls-4, .cls-5, .cls-6 {
        stroke: #c3bfbc;
      }

      .cls-3, .cls-4, .cls-5, .cls-6, .cls-7, .cls-8, .cls-9, .cls-10, .cls-11, .cls-12, .cls-13, .cls-14 {
        fill: none;
        stroke-miterlimit: 10;
      }

      .cls-4 {
        stroke-width: .31px;
      }

      .cls-15 {
        fill: #d8d6d6;
      }

      .cls-5 {
        stroke-width: .31px;
      }

      .cls-6 {
        stroke-width: .3px;
      }

      .cls-7 {
        stroke-width: .66px;
      }

      .cls-7, .cls-8, .cls-9, .cls-10, .cls-11, .cls-12, .cls-13, .cls-14 {
        stroke: #979087;
      }

      .cls-8 {
        stroke-width: .66px;
      }

      .cls-9 {
        stroke-width: .66px;
      }

      .cls-10 {
        stroke-width: .65px;
      }

      .cls-11 {
        stroke-width: .57px;
      }

      .cls-12 {
        stroke-width: .57px;
      }

      .cls-13 {
        stroke-width: .57px;
      }

      .cls-14 {
        stroke-width: .56px;
      }

      .cls-16 {
        fill: #eceae1;
      }
    </style>
  </defs>
  <path class="cls-16" d="M47.07,823.13h274.23v-2.77H49.7s-.81.86-2.63,2.77Z"/>
  <path class="cls-2" d="M321.3,817.46H52.46s1.43-1.63,2.4-2.43h266.44v2.43Z"/>
  <path class="cls-1" d="M321.3,812.02H57.63s.74-1.34,1.53-1.61h262.13v1.61Z"/>
  <line class="cls-4" x1="321.3" y1="808.09" x2="61.36" y2="808.09"/>
  <path class="cls-15" d="M43.17,827.24h278.13v-4.11H47.07s-2.09,0-3.9,4.11Z"/>
  <line class="cls-11" x1="321.3" y1="827.75" x2="42.68" y2="827.75"/>
  <path class="cls-16" d="M47.07,823.13v-394.75h2.63v391.98s-.6.73-2.63,2.77Z"/>
  <path class="cls-2" d="M52.46,428.38v389.08s1.41-1.39,2.4-2.43l-.09-386.65h-2.31Z"/>
  <path class="cls-1" d="M57.63,428.38v383.63s.75-1.23,1.53-1.61v-382.02s-1.53,0-1.53,0Z"/>
  <line class="cls-4" x1="61.36" y1="534.68" x2="61.36" y2="808.25"/>
  <path class="cls-15" d="M43.17,827.24v-402.64h3.9v398.54s-1.95.25-3.9,4.11Z"/>
  <line class="cls-9" x1="42.68" y1="424.59" x2="42.68" y2="828.03"/>
  <path class="cls-16" d="M47.07,30.27h274.23v2.8H49.7s-.81-.87-2.63-2.8Z"/>
  <path class="cls-2" d="M321.3,36H52.46s1.51,1.65,2.4,2.45h266.44s0-2.45,0-2.45Z"/>
  <path class="cls-1" d="M321.3,41.5H57.63s1.27.79,1.53,1.63h262.13s0-1.63,0-1.63Z"/>
  <line class="cls-3" x1="321.3" y1="45.47" x2="61.36" y2="45.47"/>
  <path class="cls-15" d="M43.17,26.12h278.13v4.15H47.07s-1.95-1.35-3.9-4.15Z"/>
  <line class="cls-13" x1="321.3" y1="25.6" x2="42.36" y2="25.6"/>
  <path class="cls-16" d="M47.07,30.27v401.26h2.63V33.06s-.69-.99-2.63-2.8Z"/>
  <path class="cls-2" d="M52.46,431.53V36s1.41,1.4,2.4,2.45l-.09,393.08h-2.31Z"/>
  <path class="cls-1" d="M57.63,431.53V41.5s1.25.65,1.53,1.63v388.4h-1.53Z"/>
  <line class="cls-4" x1="61.36" y1="538.96" x2="61.36" y2="45.3"/>
  <path class="cls-15" d="M43.17,26.12v401.58s3.9,0,3.9,0V30.27s-1.89-1.58-3.9-4.15Z"/>
  <line class="cls-7" x1="42.68" y1="427.7" x2="42.68" y2="25.6"/>
  <path class="cls-16" d="M548.26,30.27h-270.59v2.8h268s.8-.87,2.59-2.8Z"/>
  <path class="cls-2" d="M277.66,36h265.28s-1.42,1.75-2.37,2.45h-262.91v-2.45Z"/>
  <path class="cls-1" d="M277.66,41.5h260.07s-1.15.79-1.41,1.63h-258.66v-1.63Z"/>
  <line class="cls-5" x1="277.66" y1="45.47" x2="534.15" y2="45.47"/>
  <path class="cls-15" d="M552.11,26.12h-274.44v4.15h270.59s.33-2.08,3.85-4.15Z"/>
  <line class="cls-12" x1="277.66" y1="25.6" x2="552.91" y2="25.6"/>
  <path class="cls-16" d="M548.26,30.34v398.89h-2.59V33.06s.67-2.42,2.59-2.72Z"/>
  <path class="cls-2" d="M542.94,429.23V36s-1.39,1.4-2.37,2.45l.09,390.78h2.28Z"/>
  <path class="cls-1" d="M537.84,429.23l-.1-387.73s-1.11.66-1.41,1.63v386.1s1.51,0,1.51,0Z"/>
  <line class="cls-6" x1="534.15" y1="333.56" x2="534.15" y2="45.32"/>
  <path class="cls-15" d="M552.11,26.12v406.95h-3.85V30.27s.15-2.19,3.85-4.15Z"/>
  <line class="cls-8" x1="552.59" y1="433.06" x2="552.59" y2="25.6"/>
  <path class="cls-16" d="M548.26,823.13h-270.59v-2.77h268s.8.86,2.59,2.77Z"/>
  <path class="cls-2" d="M277.66,817.46h265.28s-1.66-1.39-2.37-2.43h-262.91s0,2.43,0,2.43Z"/>
  <path class="cls-1" d="M277.66,812.02h260.18s-1.25-.79-1.51-1.61h-258.66s0,1.61,0,1.61Z"/>
  <line class="cls-6" x1="277.66" y1="808.09" x2="534.3" y2="808.09"/>
  <path class="cls-15" d="M552.11,827.24h-274.44v-4.11h270.59s.33,2.05,3.85,4.11Z"/>
  <line class="cls-14" x1="277.66" y1="827.75" x2="552.59" y2="827.75"/>
  <path class="cls-16" d="M548.26,823.13v-397.02h-2.59v394.25s.19.74,2.59,2.77Z"/>
  <path class="cls-2" d="M542.94,426.11v391.35s-1.55-1.21-2.37-2.43l.09-388.92h2.28Z"/>
  <path class="cls-1" d="M537.84,426.11v385.91s-1.24-.69-1.51-1.61v-384.29s1.51,0,1.51,0Z"/>
  <line class="cls-6" x1="534.15" y1="333.56" x2="534.15" y2="808.09"/>
  <path class="cls-15" d="M552.11,827.24v-397.34s-3.85,0-3.85,0v393.23s.45,2.43,3.85,4.11Z"/>
  <line class="cls-10" x1="552.59" y1="429.9" x2="552.59" y2="828.02"/>
</svg>